<svg width="773" height="630" viewBox="0 0 773 630" fill="none" xmlns="http://www.w3.org/2000/svg">
<g clip-path="url(#clip0_4_150)">
<path d="M241.14 180.319C237.473 171.352 228.653 165.008 218.366 165.008C210.922 165.008 204.266 168.327 199.755 173.553C193.557 159.47 179.512 149.624 163.138 149.624C157.362 149.624 151.879 150.871 146.91 153.071C138.604 139.832 123.916 130.994 107.12 130.994C82.7331 130.994 62.6916 149.569 60.3629 173.351C55.8522 168.253 49.2878 165.008 41.935 165.008C31.63 165.008 22.8286 171.334 19.1614 180.319H241.14Z" fill="#D3CFF2"/>
<path d="M157.637 292.445C157.637 292.445 180.429 298.019 188.827 315.64C197.225 333.261 229.79 344.52 229.79 344.52C229.79 344.52 234.007 374.316 229.79 373.803C225.572 373.289 167.887 357.96 160.094 347.949C152.301 337.937 157.618 292.445 157.618 292.445H157.637Z" fill="#D3CFF2"/>
<path d="M335.48 41.2566C335.48 41.2566 370.392 52.4234 418.36 52.0934C438.493 51.9467 433.102 53.8536 435.339 64.232C437.558 74.6286 410.274 84.9886 386.161 84.2368C362.049 83.5034 332.748 81.8348 328.292 72.9233C323.837 64.0119 335.48 41.2383 335.48 41.2383V41.2566Z" fill="#4A3D6D"/>
<path d="M269.653 124.448C269.653 124.448 237.106 71.3464 249.061 61.2615C270.24 43.3836 322.993 33.8671 338.01 42.3935C342.594 44.9972 340.137 63.9936 338.744 68.2476C319.179 128.262 369.457 128.354 328.292 133.158C287.127 137.98 269.653 124.448 269.653 124.448Z" fill="#4A3D6D"/>
<path d="M282.855 27.1194L274.035 47.9494C274.035 47.9494 279.316 55.7606 287.549 53.1935C295.782 50.6265 298.019 43.8054 298.019 43.8054L282.855 27.1194Z" fill="#FFC09C"/>
<path d="M283.643 28.1463C283.643 28.1463 282.03 28.0729 281.59 27.1928C281.168 26.2943 283.35 17.1812 284.212 16.7778C285.092 16.3744 286.779 16.4661 287.457 17.9513C288.154 19.4182 283.625 28.1463 283.625 28.1463H283.643Z" fill="#FFD8BC"/>
<path d="M318.116 17.7679C318.116 17.7679 318.464 23.8005 317.4 27.1927C316.355 30.5849 311.551 31.8134 307.939 41.55C307.206 43.5303 299.193 50.8281 295.782 50.6448C290.923 50.3697 286.706 48.1144 285.459 46.9959C284.212 45.8773 280.746 43.7503 282.378 29.228C282.892 24.6807 292.188 2.91552 293.967 2.51213C295.745 2.10873 318.867 6.67446 318.097 17.7862L318.116 17.7679Z" fill="#FFD8BC"/>
<path d="M293.967 2.49379C293.967 2.49379 291.95 0.971884 288.943 5.33591C286.889 8.32472 285.22 20.555 285.129 21.4168C285.037 22.2969 284.762 24.0022 284.762 24.0022C284.762 24.0022 286.431 23.2504 287.347 22.1503C288.264 21.0501 289.548 13.7156 293.49 10.305C297.432 6.89449 300.109 5.79432 298.221 3.68565C296.332 1.57698 293.967 2.49379 293.967 2.49379Z" fill="#4A3D6D"/>
<path d="M315.072 5.35424C309.699 0.0734016 300.879 -0.586703 297.176 0.348445C293.472 1.28359 292.72 5.06086 292.72 5.06086L296.02 7.09618C294.553 7.93965 293.747 9.03983 293.508 10.2867C290.813 24.7907 307.719 30.1815 317.052 30.3282C323.048 30.4199 324.167 25.3041 324.167 25.3041C324.167 25.3041 320.463 10.6534 315.072 5.35424Z" fill="#4A3D6D"/>
<path d="M287.549 17.0528C287.549 17.0528 293.783 18.043 296.681 14.0823C299.578 10.1034 293.417 7.20624 292.72 7.51796C292.023 7.82967 287.549 17.0711 287.549 17.0711V17.0528Z" fill="#4A3D6D"/>
<path d="M32.1435 597.45H772.928C772.928 597.45 766.749 555.038 728.242 556.872C689.736 558.706 707.302 511.563 658.803 466.804C623.047 433.799 546.457 433.176 502.12 476.504C457.783 519.833 250.161 463.595 189.762 496.601C129.344 529.606 153.181 560.777 109.174 555.277C65.1671 549.776 35.8291 575.483 32.1618 597.468L32.1435 597.45Z" fill="#D3CFF2"/>
<path d="M418.36 52.0933V57.4841C418.36 57.4841 423.751 63.0583 426.391 63.6084C429.032 64.1585 435.889 64.2502 435.889 64.2502C435.889 64.2502 436.99 61.6098 434.789 60.968C432.607 60.3262 428.94 58.9877 428.94 58.9877L428.206 57.4841H449.11C449.11 57.4841 449.11 55.9439 448.01 55.4855C446.909 55.0271 437.686 52.2033 436.329 52.0199C434.973 51.8366 418.342 52.0933 418.342 52.0933H418.36Z" fill="#FFD8BC"/>
<path d="M158.333 629.08C210.558 629.08 252.894 623.629 252.894 616.905C252.894 610.181 210.558 604.729 158.333 604.729C106.109 604.729 63.7734 610.181 63.7734 616.905C63.7734 623.629 106.109 629.08 158.333 629.08Z" fill="#D3CFF2"/>
<path d="M629.153 629.08C681.377 629.08 723.713 623.629 723.713 616.905C723.713 610.181 681.377 604.729 629.153 604.729C576.929 604.729 534.593 610.181 534.593 616.905C534.593 623.629 576.929 629.08 629.153 629.08Z" fill="#D3CFF2"/>
<path d="M649.576 34.5034C651.873 24.8173 645.883 15.1033 636.197 12.8064C626.511 10.5096 616.797 16.4998 614.5 26.1858C612.203 35.8719 618.193 45.586 627.88 47.8828C637.566 50.1797 647.28 44.1895 649.576 34.5034Z" fill="#FFCC26"/>
<path d="M703.342 51.8916C695.897 51.8916 689.241 55.2104 684.73 60.4363C678.533 46.354 664.487 36.5075 648.113 36.5075C642.337 36.5075 636.854 37.7543 631.885 39.9547C623.579 26.7159 608.892 17.8778 592.096 17.8778C567.708 17.8778 547.667 36.4525 545.338 60.2346C540.828 55.1371 534.263 51.8916 526.91 51.8916C516.605 51.8916 507.804 58.2176 504.137 67.2024H726.115C722.448 58.2359 713.628 51.8916 703.342 51.8916Z" fill="#D3CFF2"/>
<path d="M581.277 593.783V100.629C581.277 98.604 579.636 96.9621 577.61 96.9621L213.929 96.9621C211.904 96.9621 210.262 98.604 210.262 100.629L210.262 593.783C210.262 595.808 211.904 597.45 213.929 597.45H577.61C579.636 597.45 581.277 595.808 581.277 593.783Z" fill="#A59DE3"/>
<path d="M562.905 579.059V119.681L232.999 119.681V579.059H562.905Z" fill="#8D81E3"/>
<path d="M558.577 574.75V119.681L232.999 119.681V574.75H558.577Z" fill="white"/>
<path d="M460.772 96.9621L460.167 93.9L459.873 92.4514L458.92 87.629L454.647 66.1022C453.584 60.7297 450.723 57.1175 447.515 57.1175H344.061C340.853 57.1175 337.992 60.7297 336.91 66.1022L332.638 87.629L331.684 92.4514L331.391 93.9L330.786 96.9621L329.227 104.828H462.349L460.772 96.9621ZM395.77 82.0364C392.579 82.0364 389.975 79.451 389.975 76.2422C389.975 73.0333 392.579 70.4296 395.77 70.4296C398.96 70.4296 401.582 73.0333 401.582 76.2422C401.582 79.451 398.978 82.0364 395.77 82.0364Z" fill="#A59DE3"/>
<path d="M460.772 96.9622H330.786L331.391 93.9L331.684 92.4514H459.873L460.167 93.9L460.772 96.9622Z" fill="#8D81E3"/>
<path d="M457.765 252.93H268.278V284.67H457.765V252.93Z" fill="#D3CFF2"/>
<path d="M518.072 252.93H486.131V284.872H518.072V252.93Z" fill="#D3CFF2"/>
<path d="M457.765 331.318H268.278V363.058H457.765V331.318Z" fill="#D3CFF2"/>
<path d="M518.072 331.318H486.131V363.259H518.072V331.318Z" fill="#D3CFF2"/>
<path d="M457.765 409.705H268.278V441.445H457.765V409.705Z" fill="#D3CFF2"/>
<path d="M518.072 409.705H486.131V441.647H518.072V409.705Z" fill="#D3CFF2"/>
<path d="M457.765 488.093H268.278V519.833H457.765V488.093Z" fill="#D3CFF2"/>
<path d="M518.072 488.093H486.131V520.034H518.072V488.093Z" fill="#D3CFF2"/>
<path d="M460.858 141.765L274.821 177.758L280.85 208.92L466.887 172.927L460.858 141.765Z" fill="#D3CFF2"/>
<path d="M269.304 62.7283C265.949 56.2189 251.5 54.257 244.807 66.5423C230.542 92.7264 240.498 125.42 248.273 141.831C258.358 163.083 309.186 175.331 309.186 175.331C309.186 175.331 314.375 157.16 314.008 155.675C313.641 154.19 270.973 140.584 275.649 96.082C277.244 80.9729 273.137 70.1545 269.304 62.7283Z" fill="#4A3D6D"/>
<path d="M310.231 171.609C310.231 171.609 313.825 174.048 318.464 175.331C323.103 176.633 333.298 173.736 333.683 172.874C334.05 171.994 333.426 159.635 331.611 158.774C329.796 157.912 314.027 155.675 314.027 155.675L310.249 171.609H310.231Z" fill="#FFD8BC"/>
<path d="M680.202 530.816H578.105C575.08 530.816 572.623 528.341 572.623 525.334C572.623 522.308 575.098 519.851 578.105 519.851H680.202C683.227 519.851 685.684 522.326 685.684 525.334C685.684 528.359 683.209 530.816 680.202 530.816Z" fill="#FFBB00"/>
<path d="M600.109 530.816H589.565V612.101H600.109V530.816Z" fill="#4A3D6D"/>
<path d="M669.328 530.816H658.785V612.101H669.328V530.816Z" fill="#4A3D6D"/>
<path d="M71.8965 383.154C71.8965 383.154 79.6894 390.746 86.1254 391.149C92.5614 391.534 98.5941 385.96 98.5941 385.96L89.0409 377.892L71.8965 383.154Z" fill="#FFBF9D"/>
<path d="M185.123 602.236C182.739 602.052 182.244 604.033 175.02 601.777C174.891 601.759 174.763 601.722 174.653 601.667C174.653 601.667 155.015 499.809 141.923 451.952C136.807 505.824 129.527 601.667 129.527 601.667C129.399 601.722 129.289 601.759 129.161 601.777C121.936 604.014 121.423 602.052 119.039 602.236C117.884 602.327 104.608 494.822 110.824 423.127L172.159 420.56C181.987 492.2 186.351 602.309 185.123 602.236Z" fill="#4A3D6D"/>
<path d="M174.8 599.192C174.8 599.192 174.469 608.048 175.276 610.872C176.083 613.678 182.592 614.081 184.408 614.869C186.223 615.658 190.202 617.602 199.773 618.738C202.469 619.05 202.836 617.125 199.59 615.456C188.808 609.955 185.343 600.641 185.343 600.641L174.818 599.192H174.8Z" fill="#321707"/>
<path d="M129.509 599.192C129.509 599.192 129.839 608.048 129.032 610.872C128.225 613.678 121.716 614.081 119.901 614.869C118.085 615.658 114.106 617.602 104.535 618.738C101.839 619.05 101.473 617.125 104.718 615.456C115.5 609.955 118.966 600.641 118.966 600.641L129.491 599.192H129.509Z" fill="#321707"/>
<path d="M178.723 417.993C178.595 420.267 176.706 421.569 174.506 422.21C166.603 424.558 143.371 426.593 126.74 426.886C116.49 427.07 108.752 426.611 108.606 425.163C107.707 415.774 106.607 406.056 105.433 396.393C99.6759 349.012 91.6629 302.035 95.8619 299.669C114.308 289.273 137.43 290.41 157.618 292.445C165.595 293.252 175.148 315.64 174.634 338.359C173.974 367 179.549 401.546 178.687 417.993H178.723Z" fill="#D3CFF2"/>
<path d="M125.768 273.338C125.768 273.338 124.118 273.76 123.421 273.008C122.725 272.238 122.119 262.41 122.89 261.75C123.641 261.09 125.365 260.668 126.52 261.933C127.675 263.199 125.787 273.357 125.787 273.357L125.768 273.338Z" fill="#FFD8BC"/>
<path d="M132.956 300.146C130.719 299.449 128.995 297.909 127.95 296.791C127.254 296.039 126.923 295.03 127.033 294.003L128.885 277.409L149.569 276.089L149.917 294.627C146.983 300.439 138.659 301.925 132.956 300.146Z" fill="#FFC09C"/>
<path d="M157.233 252.362C157.233 252.362 159.617 255.589 157.362 261.64C153.823 271.083 156.738 268.901 154.281 279.353C153.768 281.516 149.404 289.731 145.626 291.876C141.189 294.407 134.936 292.427 133.341 291.675C131.746 290.941 127.62 289.859 124.833 274.75C123.953 270.02 126.648 245.302 128.317 244.367C129.986 243.414 154.63 240.938 157.233 252.343V252.362Z" fill="#FFD8BC"/>
<path d="M128.317 244.386C128.317 244.386 126.19 244.202 125.842 247.979C125.493 251.775 125.053 265.197 125.218 266.096C125.383 267.012 125.31 268.901 125.31 268.901C125.31 268.901 126.483 268.901 127.089 267.526C127.694 266.151 127.309 256.983 130.242 252.362C133.158 247.741 135.505 245.797 132.974 244.257C130.444 242.717 128.335 244.367 128.335 244.367L128.317 244.386Z" fill="#4A3D6D"/>
<path d="M13.9172 356.017L26.9543 319.234L201.882 381.944L188.845 418.727L13.9172 356.017Z" fill="#FFBB00"/>
<path d="M17.6028 345.602L23.2504 329.649L198.197 392.359L192.531 408.311L17.6028 345.602Z" fill="#FFCC26"/>
<path d="M188.845 418.727L201.882 381.944L224.161 400.207L233.567 407.908L246.439 418.452L229.808 418.525L217.651 418.598L188.845 418.727Z" fill="#FFBF9D"/>
<path d="M229.808 418.525L233.567 407.908L246.439 418.451L229.808 418.525Z" fill="#4A3D6D"/>
<path d="M20.6283 358.4L7.07779 353.596C1.55858 351.634 -1.33855 345.565 0.623431 340.027L7.24282 321.379C7.29783 321.214 7.37117 321.049 7.44452 320.884C9.2048 316.722 13.9355 314.613 18.2446 316.154L33.6837 321.636L24.3322 347.967L20.6283 358.419V358.4Z" fill="#D3CFF2"/>
<path d="M24.3323 347.949L10.8001 343.144C5.28093 341.183 2.3838 335.113 4.34578 329.576L7.44461 320.848C9.20489 316.685 13.9356 314.577 18.2447 316.117L33.6838 321.599L24.3323 347.93V347.949Z" fill="#EFEDFF"/>
<path d="M95.8803 299.669C95.8803 299.669 43.3837 339.019 43.8054 350.021C44.2271 361.022 52.8452 376.572 66.8357 384.786C66.8357 384.786 77.0857 389.077 84.1085 381.174C84.1085 381.174 72.3916 359.354 74.2436 357.502C77.8741 353.871 111.081 338.836 111.081 338.836C111.081 338.836 122.596 300.678 95.8803 299.669Z" fill="#D3CFF2"/>
<path d="M128.702 250.253C128.702 250.253 129.216 260.998 137.412 256.983C139.961 255.736 143.059 256.506 144.691 258.835C147.9 263.419 150.046 265.931 154.336 262.924C158.627 259.898 157.123 266.939 162.624 264.244C166.126 262.52 165.338 258.926 163.193 256.744C162.588 256.121 162.313 255.241 162.368 254.379C162.606 251.005 162.404 243.139 155.51 241.874C154.483 241.69 153.566 241.745 152.741 241.91C150.779 242.314 148.762 241.653 147.588 240.022C145.406 237.014 141.079 233.402 133.488 235.401C116.564 239.857 123.568 259.348 125.218 266.114C126.318 270.661 128.72 250.253 128.72 250.253H128.702Z" fill="#4A3D6D"/>
<path d="M615.786 215.029C615.786 215.029 608.177 234.136 616.19 241.983C624.203 249.831 638.45 239.967 639.66 238.756C640.87 237.546 615.786 215.011 615.786 215.011V215.029Z" fill="#FFD8BC"/>
<path d="M615.328 352.386C615.328 352.386 587.255 345.73 587.988 353.395C595.213 428.72 603.831 519.429 604.729 520.034C608.012 522.253 611.275 519.081 611.386 519.044C611.386 519.044 623.139 373.363 615.346 352.386H615.328Z" fill="#FFBF9D"/>
<path d="M654.457 356.512C654.457 356.512 627.778 345.51 627.301 353.193C622.534 428.72 616.721 519.649 617.51 520.383C620.389 523.097 624.111 520.474 624.239 520.456C624.239 520.456 658.858 378.46 654.476 356.512H654.457Z" fill="#FFBF9D"/>
<path d="M651.157 255.644C646.628 253.535 640.834 251.298 633.829 249.501C634.599 249.006 613.568 250.363 615.456 249.941C607.535 252.013 601.741 254.617 597.303 256.964C594.773 258.303 600.677 261.017 601.026 263.859L614.173 322.865L593.324 340.504C593.324 342.98 597.377 345.015 600.567 344.997L615.365 344.96C620.682 344.52 623.396 342.356 624.386 340.247C625.743 341.934 628.347 343.42 632.692 343.768H647.49C650.68 343.768 648.755 350.534 648.755 348.059L637.588 322.443L652.129 265.967C652.77 262.025 654.787 257.331 651.157 255.644Z" fill="#FFCC26"/>
<path d="M605.72 278.344C605.72 278.344 587.952 325.964 548.804 415.078C548.804 415.078 596.405 456.536 686.674 427.785C686.674 427.785 674.719 346.684 642.649 306.564L605.701 278.344H605.72Z" fill="#FFCC26"/>
<path d="M535.308 220.732C531.018 212.755 514.387 214.222 514.387 212.884C514.387 211.545 514.662 210.207 516.257 209.932C517.871 209.657 542.276 208.85 543.083 209.932C543.89 211.014 545.595 216.698 545.595 216.698C545.595 216.698 536.61 223.17 535.308 220.732Z" fill="#FFD8BC"/>
<path d="M629.392 198.27C629.392 198.27 606.93 201.882 616.575 225.224C626.66 249.575 625.541 254.085 619.6 275.319C614.723 292.757 612.449 313 631.06 319.784C649.837 326.624 685.519 308.306 676.919 276.071C671.308 255.002 667.549 259.44 663.259 241.287C660.417 229.276 662.654 220.383 656.914 210.207C651.634 200.855 642.942 195.85 629.41 198.27H629.392Z" fill="#4A3D6D"/>
<path d="M603.813 513.983C603.813 513.983 587.42 517.064 587.017 518.549L586.613 520.034H613.237C613.237 520.034 613.916 519.209 613.237 516.129C612.559 513.048 612.156 512.37 611.624 512.37C611.092 512.37 603.813 513.965 603.813 513.965V513.983Z" fill="#383266"/>
<path d="M618.867 513.983C618.867 513.983 602.474 517.064 602.071 518.549L601.667 520.034H628.291C628.291 520.034 628.97 519.209 628.291 516.129C627.613 513.048 627.21 512.37 626.678 512.37C626.146 512.37 618.867 513.965 618.867 513.965V513.983Z" fill="#383266"/>
<path d="M605.72 278.344C605.72 278.344 558.155 273.522 553.168 268.278C548.181 263.052 534.098 220.658 535.309 220.732C536.519 220.805 547.832 215.158 548.804 215.964C549.794 216.771 564.28 253.792 569.909 254.599C575.538 255.406 614.173 250.29 614.173 250.29L605.72 278.344Z" fill="#FFCC26"/>
<path d="M544.348 177H512.406V208.942H544.348V177Z" fill="#D3CFF2"/>
</g>
<defs>
<clipPath id="clip0_4_150">
<rect width="772.928" height="629.08" fill="white"/>
</clipPath>
</defs>
</svg>
